<svg width="400" height="400" viewBox="0 0 400 400" fill="none" xmlns="http://www.w3.org/2000/svg">
<rect width="400" height="400" fill="white"/>
<path d="M117.714 149.381C102.78 154.447 91.7136 163.781 85.0469 177.381C74.2469 199.514 78.1136 224.047 95.0469 239.514C111.847 254.714 138.38 256.981 161.047 244.847C173.58 238.181 188.38 224.581 197.314 211.647L199.58 208.314L201.847 211.647C211.047 224.581 230.247 240.047 246.247 247.381C252.78 250.447 255.447 250.847 267.714 250.981C280.114 250.981 282.514 250.581 289.047 247.514C310.514 237.247 323.714 212.314 319.714 189.247C316.78 172.047 307.98 159.914 293.314 152.714C284.78 148.447 283.847 148.314 268.247 148.314H252.114L240.514 154.181C231.314 158.714 226.38 162.314 217.714 170.847C211.714 176.714 205.18 183.781 203.18 186.314L199.58 190.981L196.647 186.981C186.514 173.114 166.247 157.514 150.78 151.647C141.314 147.914 125.314 146.847 117.714 149.381ZM143.047 154.981C156.514 158.447 169.714 166.981 184.114 181.247C193.18 190.314 198.114 194.314 200.38 194.314C202.78 194.314 203.314 194.847 202.78 196.981C201.314 202.714 228.247 225.781 247.58 235.381C256.647 239.914 258.647 240.314 268.38 240.314C277.314 240.181 280.114 239.647 285.847 236.714C300.114 229.247 309.047 214.047 309.047 197.114C309.047 180.581 302.647 169.247 288.914 161.647C282.114 157.914 280.78 157.647 267.047 157.647C253.18 157.647 251.847 157.914 243.047 162.047C237.98 164.447 230.38 168.981 226.38 171.914C219.58 176.981 219.314 177.114 223.047 173.114C229.58 166.047 242.114 158.447 251.98 155.514C277.58 147.647 304.38 158.847 312.114 180.447C314.514 187.247 315.314 202.714 313.714 209.647C310.514 222.447 299.58 236.181 288.247 241.781C266.247 252.581 238.514 243.114 212.38 216.047C206.38 210.047 200.514 204.981 199.314 204.981C197.98 204.981 197.047 203.914 197.047 202.314C197.047 199.381 182.114 184.447 170.247 175.514C166.38 172.581 157.98 167.647 151.847 164.581C141.714 159.514 139.58 158.981 131.18 159.114C115.18 159.247 102.247 167.647 94.3802 183.114C91.4469 188.847 91.0469 191.381 91.0469 202.981C91.0469 218.181 93.0469 223.247 101.98 231.914C110.514 240.181 118.38 242.981 132.38 242.847C146.647 242.714 155.314 239.914 168.78 230.714C175.714 225.914 176.914 225.514 174.38 228.314C169.98 233.114 158.38 240.581 151.314 243.114C124.514 252.847 96.1136 242.447 87.7136 219.914C83.5802 209.114 84.2469 191.381 89.1802 180.981C95.4469 167.514 105.98 158.447 119.58 154.847C127.98 152.581 133.714 152.581 143.047 154.981ZM284.38 165.514C297.847 171.781 304.247 181.914 304.247 196.981C304.247 218.047 287.847 235.647 268.247 235.647C256.114 235.647 235.58 224.447 218.514 208.447C213.58 203.781 208.78 199.781 207.847 199.514C206.114 198.847 223.18 181.247 231.847 174.847C243.314 166.181 253.98 162.581 267.714 162.447C275.58 162.314 279.18 162.981 284.38 165.514ZM149.58 169.381C160.38 174.581 173.047 183.647 184.78 194.447L192.78 201.914L181.047 212.981C167.447 225.647 160.38 230.714 151.047 234.181C121.447 245.247 95.1802 230.181 95.1802 202.314C95.1802 180.714 113.847 162.181 133.58 164.181C137.18 164.581 144.38 166.981 149.58 169.381Z" fill="black"/>
</svg>
